<?xml version="1.0" encoding="utf-8"?>
<!-- Generator: Adobe Illustrator 20.0.0, SVG Export Plug-In . SVG Version: 6.00 Build 0)  -->
<svg version="1.1" id="Layer_1" xmlns="http://www.w3.org/2000/svg" xmlns:xlink="http://www.w3.org/1999/xlink" x="0px" y="0px"
	 viewBox="0 0 94 32.5" style="enable-background:new 0 0 94 32.5;" xml:space="preserve">
<g>
	<path d="M13.3,2.8v0.7H9.7v25.1H13c2.5,0,4.4-0.9,5.8-2.7c1.4-1.8,2.3-4.6,2.8-8.5H22v11.9H3v-0.7h3.6V3.5H2.9V2.8H13.3z"/>
	<path d="M29.8,28.7h2.6v0.6h-8v-0.6H27V12.3h-2.6v-0.6h5.3v17H29.8z M26.8,5.2c0-0.5,0.2-0.9,0.5-1.2s0.8-0.5,1.2-0.5
		c0.5,0,0.9,0.2,1.3,0.5c0.3,0.3,0.5,0.8,0.5,1.2c0,0.5-0.2,0.9-0.5,1.3C29.5,6.8,29.1,7,28.6,7s-0.9-0.2-1.2-0.5
		C27,6.1,26.8,5.7,26.8,5.2z"/>
	<path d="M47.7,11.7v0.6c-0.7,0.1-1.2,0.4-1.6,0.9c-0.4,0.5-0.8,1.2-1,2l-4.3,14.5h-0.7l-5.7-17.4h-1.9v-0.6h7.1v0.6h-2.3l4.1,13.1
		l2.9-9.8c0.1-0.3,0.1-0.5,0.2-0.7c0-0.2,0.1-0.4,0.1-0.6c0-0.6-0.2-1.1-0.6-1.4c-0.4-0.3-0.9-0.5-1.7-0.5v-0.6h5.4V11.7z"/>
	<path d="M53.7,16c0.4-1.6,1-2.7,1.7-3.5s1.6-1.2,2.6-1.2c0.7,0,1.3,0.3,1.8,0.8s0.7,1.1,0.7,1.9c0,0.5-0.2,1-0.5,1.3
		s-0.7,0.5-1.2,0.5c-0.4,0-0.8-0.1-1.1-0.4c-0.3-0.3-0.4-0.7-0.4-1.1c0-0.5,0.1-0.8,0.4-1.1c0.3-0.3,0.6-0.4,1-0.4
		c0.2,0,0.4,0,0.6,0.1c0.2,0.1,0.4,0.2,0.5,0.4c-0.2-0.4-0.4-0.7-0.8-0.9c-0.3-0.2-0.7-0.3-1.2-0.3c-1.2,0-2.1,0.8-2.9,2.4
		c-0.8,1.6-1.2,3.6-1.2,6.1v8.2h2.6v0.6h-8v-0.6h2.6V12.3h-2.6v-0.6h5.2L53.7,16z"/>
	<path d="M69.4,11.3c1.9,0,3.5,0.9,4.9,2.7s2.1,4,2.1,6.5c0,2.6-0.7,4.7-2,6.5c-1.4,1.8-3,2.7-4.9,2.7S66,28.8,64.6,27
		c-1.4-1.8-2-4-2-6.5c0-2.6,0.7-4.7,2-6.5C65.9,12.2,67.5,11.3,69.4,11.3z M69.4,11.9c-1.4,0-2.4,0.6-3,1.9
		c-0.6,1.2-0.9,3.5-0.9,6.7c0,3.3,0.3,5.5,0.9,6.7s1.6,1.8,3,1.8s2.4-0.6,3-1.8c0.6-1.2,0.9-3.5,0.9-6.7S73,15,72.4,13.8
		S70.8,11.9,69.4,11.9z"/>
	<path d="M79.9,22.1c0.5,2.2,1.4,3.9,2.5,5.1s2.3,1.9,3.7,1.9c0.9,0,1.7-0.3,2.4-1c0.6-0.7,1-1.5,1-2.4c0-1.6-1.6-3.2-4.9-4.9
		c-0.1,0-0.1-0.1-0.2-0.1c-1.9-1-3.2-1.8-3.7-2.5S80,16.7,80,15.7c0-1.3,0.4-2.3,1.2-3.2c0.8-0.8,1.9-1.2,3.1-1.2
		c0.7,0,1.3,0.2,2,0.5s1.3,0.9,1.9,1.5l2-1.7h0.1v6.5h-0.4c-0.4-1.9-1.2-3.5-2.2-4.6s-2.1-1.7-3.4-1.7c-0.7,0-1.3,0.2-1.8,0.6
		c-0.5,0.4-0.7,1-0.7,1.6c0,1.3,1.2,2.6,3.7,3.9c0.2,0.1,0.3,0.2,0.4,0.2c2.1,1,3.5,2,4.2,2.8c0.7,0.9,1.1,1.9,1.1,3.2
		c0,1.5-0.5,2.8-1.4,3.8s-2.1,1.5-3.5,1.5c-0.8,0-1.6-0.2-2.4-0.6s-1.5-1-2.1-1.8l-1.7,2.1h-0.4v-7.2h0.2V22.1z"/>
</g>
</svg>
