<?xml version="1.0" encoding="UTF-8" standalone="no"?>
<!-- Created with Inkscape (http://www.inkscape.org/) -->

<svg
   xmlns:dc="http://purl.org/dc/elements/1.1/"
   xmlns:cc="http://creativecommons.org/ns#"
   xmlns:rdf="http://www.w3.org/1999/02/22-rdf-syntax-ns#"
   xmlns:svg="http://www.w3.org/2000/svg"
   xmlns="http://www.w3.org/2000/svg"
   xmlns:xlink="http://www.w3.org/1999/xlink"
   xmlns:sodipodi="http://sodipodi.sourceforge.net/DTD/sodipodi-0.dtd"
   xmlns:inkscape="http://www.inkscape.org/namespaces/inkscape"
   width="992.12598"
   height="719.29132"
   id="svg2"
   version="1.1"
   inkscape:version="0.48.4 r9939"
   sodipodi:docname="CodigoCapa0921bsvg.pdf">
  <defs
     id="defs4">
    <clipPath
       id="SVGID_4_">
      <use
         xlink:href="#SVGID_3_"
         overflow="visible"
         id="use5483"
         style="overflow:visible"
         x="0"
         y="0"
         width="988.771"
         height="722.31403" />
    </clipPath>
    <clipPath
       id="SVGID_6_">
      <use
         xlink:href="#SVGID_5_"
         overflow="visible"
         id="use5495"
         style="overflow:visible"
         x="0"
         y="0"
         width="988.771"
         height="722.31403" />
    </clipPath>
    <clipPath
       id="SVGID_8_">
      <use
         xlink:href="#SVGID_7_"
         overflow="visible"
         id="use5507"
         style="overflow:visible"
         x="0"
         y="0"
         width="988.771"
         height="722.31403" />
    </clipPath>
    <clipPath
       id="SVGID_10_">
      <use
         xlink:href="#SVGID_9_"
         overflow="visible"
         id="use5519"
         style="overflow:visible"
         x="0"
         y="0"
         width="988.771"
         height="722.31403" />
    </clipPath>
    <clipPath
       id="SVGID_12_">
      <use
         xlink:href="#SVGID_11_"
         overflow="visible"
         id="use5531"
         style="overflow:visible"
         x="0"
         y="0"
         width="988.771"
         height="722.31403" />
    </clipPath>
    <clipPath
       id="SVGID_14_">
      <use
         xlink:href="#SVGID_13_"
         overflow="visible"
         id="use5543"
         style="overflow:visible"
         x="0"
         y="0"
         width="988.771"
         height="722.31403" />
    </clipPath>
    <clipPath
       id="SVGID_16_">
      <use
         xlink:href="#SVGID_15_"
         overflow="visible"
         id="use5555"
         style="overflow:visible"
         x="0"
         y="0"
         width="988.771"
         height="722.31403" />
    </clipPath>
    <clipPath
       id="SVGID_18_">
      <use
         xlink:href="#SVGID_17_"
         overflow="visible"
         id="use5567"
         style="overflow:visible"
         x="0"
         y="0"
         width="988.771"
         height="722.31403" />
    </clipPath>
    <clipPath
       id="SVGID_20_">
      <use
         xlink:href="#SVGID_19_"
         overflow="visible"
         id="use5865"
         style="overflow:visible"
         x="0"
         y="0"
         width="988.771"
         height="722.31403" />
    </clipPath>
  </defs>
  <sodipodi:namedview
     id="base"
     pagecolor="#ffffff"
     bordercolor="#666666"
     borderopacity="1.0"
     inkscape:pageopacity="0.0"
     inkscape:pageshadow="2"
     inkscape:zoom="0.49944993"
     inkscape:cx="706.16113"
     inkscape:cy="121.93298"
     inkscape:document-units="mm"
     inkscape:current-layer="svg2"
     showgrid="false"
     units="mm"
     inkscape:window-width="1440"
     inkscape:window-height="838"
     inkscape:window-x="-8"
     inkscape:window-y="-8"
     inkscape:window-maximized="1"
     inkscape:snap-global="true" />
  <metadata
     id="metadata7">
    <rdf:RDF>
      <cc:Work
         rdf:about="">
        <dc:format>image/svg+xml</dc:format>
        <dc:type
           rdf:resource="http://purl.org/dc/dcmitype/StillImage" />
        <dc:title></dc:title>
      </cc:Work>
    </rdf:RDF>
  </metadata>
  <image
     sodipodi:absref=""
     xlink:href=""
     height="160"
     width="160"
     y="534.26514"
     x="827.6073"
     style="overflow:visible"
     id="imagem2"
     enable-background="new    "
     overflow="visible" />
  <image
     y="216.23077"
     x="495.70312"
     id="image1"
     xlink:href=""
     height="363"
     width="363" />
  <image
     sodipodi:absref=""
     xlink:href="logo.jpg"
     y="140.46526"
     x="896.66888"
     overflow="visible"
     enable-background="new    "
     width="49.010502"
     height="58.784199"
     id="logo"
     style="overflow:visible" />
  <g
     transform="translate(19.17899,-6.7680711)"
     id="Grade">
    <polyline
       points="818.613,586.144 259.791,561.142 251.032,701.314 811.406,701.314 "
       id="polyline5027"
       style="fill:#3483aa"
       transform="translate(0,-5.2472379e-5)" />
    <polygon
       points="522.279,572.85 544.048,224.472 281.561,212.736 259.791,561.143 "
       id="polygon5029"
       style="fill:#3483aa"
       transform="translate(0,-5.2472379e-5)" />
    <polygon
       points="967.772,592.87 967.772,243.52 840.325,237.851 818.613,586.172 "
       id="polygon5459"
       style="fill:#3483aa"
       transform="translate(0,-5.2472379e-5)" />
    <polygon
       points="21,701.316 251.031,701.316 259.791,561.143 21,550.352 "
       id="polygon5461"
       style="fill:#3483aa"
       transform="translate(0,-5.2472379e-5)" />
    <polygon
       points="21,21 293.551,21 281.561,212.736 21,201.031 "
       id="polygon5463"
       style="fill:#3483aa"
       transform="translate(0,-5.2472379e-5)" />
    <polyline
       points="556.747,21 544.022,224.5 840.388,237.766 853.925,21 "
       id="polyline5465"
       style="fill:#3483aa"
       transform="translate(0,-5.2472379e-5)" />
    <polyline
       points="293.551,21 281.56,212.68 543.991,224.527 556.749,21 "
       id="polyline5467"
       style="fill:#72abcc"
       transform="translate(0,-5.2472379e-5)" />
    <polygon
       points="514.229,701.316 522.279,572.85 259.818,561.143 251.032,701.316 "
       id="polygon5469"
       style="fill:#72abcc"
       transform="translate(0,-5.2472379e-5)" />
    <g
       id="g5473"
       transform="translate(0,-5.2472379e-5)">
      <g
         id="g5475">
        <g
           id="g5477">
          <defs
             id="defs5479">
            <rect
               id="SVGID_3_"
               x="21"
               y="21"
               width="946.771"
               height="680.31403" />
          </defs>
          <clipPath
             id="clipPath9927">
            <use
               xlink:href="#SVGID_3_"
               overflow="visible"
               id="use9929"
               style="overflow:visible"
               x="0"
               y="0"
               width="988.771"
               height="722.31403" />
          </clipPath>
          <path
             clip-path="url(#SVGID_4_)"
             d="m 916.2,120.417 c 0,1.044 -0.537,1.857 -1.429,1.857 -0.567,0 -0.92,-0.49 -0.92,-1.196 0,-1.459 1.795,-1.536 2.349,-1.552 v 0.891 l 0,0 z m 0,2.518 h 1.535 v -4.667 c 0,-1.519 -0.339,-2.64 -2.519,-2.64 -2.211,0 -2.719,1.074 -2.887,2.088 h 1.826 c 0,-0.676 0.063,-1.566 1.076,-1.566 0.967,0 0.967,1.074 0.967,2.042 v 0.782 c -0.982,0.031 -4.039,0.2 -4.039,2.365 0,0.905 0.861,1.765 2.059,1.765 1.185,0 1.703,-0.752 1.98,-1.075 l 0.002,0.906 0,0 z m -8.628,0 h 1.534 v -3.669 c 0,-1.074 0.445,-2.287 1.994,-2.287 0.263,0 0.539,0.107 0.783,0.185 v -1.458 c -0.262,-0.046 -0.553,-0.077 -0.828,-0.077 -1.229,0 -1.705,1.319 -1.92,2.025 h -0.029 v -2.025 l -2.747,0.491 v 0.307 c 0.967,0.031 1.213,0.292 1.213,1.366 v 5.142 z m -4.009,-3.393 c 0,0.813 -0.137,2.732 -1.61,2.732 -1.441,0 -1.564,-1.796 -1.564,-2.978 0,-1.075 0.14,-2.84 1.552,-2.84 1.457,0 1.627,1.596 1.627,2.456 v 0.629 l -0.005,0.001 0,0 z m 0,3.393 h 1.535 v -10.746 l -2.688,0.384 v 0.308 c 0.906,0.046 1.152,0.307 1.152,1.396 v 2.502 h -0.031 c -0.291,-0.506 -0.769,-1.15 -2.025,-1.15 -2.025,0 -2.811,1.934 -2.811,3.884 0,1.919 0.752,3.592 2.748,3.592 1.104,0 1.733,-0.66 2.119,-1.028 v 0.858 l 10e-4,0 z m -10.361,-4.989 c 0,-0.583 0.322,-1.796 1.475,-1.796 1.336,0 1.365,1.443 1.365,1.796 h -2.84 z m 4.236,4.068 c -0.26,0.107 -0.797,0.261 -1.442,0.261 -2.164,0 -2.793,-2.18 -2.793,-3.715 h 4.375 c 0,-1.029 -0.215,-2.932 -2.84,-2.932 -2.058,0 -3.226,1.059 -3.226,3.484 0,2.563 1.414,3.991 3.762,3.991 1.062,0 1.873,-0.307 2.164,-0.415 v -0.674 l 0,0 z m -13.646,0.921 h 1.535 v -3.654 c 0,-1.396 0.92,-2.608 1.813,-2.608 1.121,0 1.121,0.998 1.121,1.75 v 4.513 h 1.533 v -4.743 c 0,-1.09 -0.139,-2.563 -1.889,-2.563 -1.55,0 -2.287,1.351 -2.548,1.979 h -0.03 v -5.419 l -2.73,0.384 v 0.308 c 0.937,0.046 1.195,0.307 1.195,1.396 v 8.657 l 0,0 z"
             id="path5485"
             inkscape:connector-curvature="0"
             style="fill:#286fb7" />
        </g>
      </g>
      <g
         id="g5487">
        <g
           id="g5489">
          <defs
             id="defs5491">
            <rect
               id="SVGID_5_"
               x="21"
               y="21"
               width="946.771"
               height="680.31403" />
          </defs>
          <clipPath
             id="clipPath9936">
            <use
               xlink:href="#SVGID_5_"
               overflow="visible"
               id="use9938"
               style="overflow:visible"
               x="0"
               y="0"
               width="988.771"
               height="722.31403" />
          </clipPath>
          <path
             clip-path="url(#SVGID_6_)"
             d="m 915.661,130.038 c 0,-0.567 0.045,-1.354 0.684,-1.354 0.625,0 0.685,0.76 0.685,1.354 0,0.645 -0.053,1.348 -0.685,1.348 -0.639,0 -0.684,-0.813 -0.684,-1.348 m 0.682,1.566 c 0.955,0 1.394,-0.516 1.394,-1.566 0,-0.929 -0.457,-1.572 -1.394,-1.572 -0.938,0 -1.393,0.496 -1.393,1.572 0.002,0.902 0.356,1.566 1.393,1.566 m -4.311,-1.127 c 0,0.438 -0.228,0.78 -0.603,0.78 -0.235,0 -0.385,-0.207 -0.385,-0.503 0,-0.612 0.754,-0.646 0.984,-0.651 v 0.374 h 0.004 z m 0,1.057 h 0.645 v -1.961 c 0,-0.638 -0.143,-1.107 -1.059,-1.107 -0.929,0 -1.142,0.451 -1.211,0.876 h 0.768 c 0,-0.283 0.025,-0.657 0.451,-0.657 0.406,0 0.406,0.451 0.406,0.857 v 0.329 c -0.414,0.013 -1.695,0.084 -1.695,0.991 0,0.382 0.361,0.742 0.863,0.742 0.496,0 0.717,-0.315 0.832,-0.452 v 0.382 z m -0.967,-3.513 c 0,-0.187 0.037,-0.342 0.169,-0.342 l 0.364,0.194 c 0.162,0.096 0.351,0.192 0.451,0.192 0.426,0 0.426,-0.477 0.426,-0.818 H 912.2 c 0,0.231 -0.033,0.354 -0.162,0.354 -0.09,0 -0.18,-0.09 -0.297,-0.147 -0.104,-0.059 -0.365,-0.245 -0.547,-0.245 -0.4,0 -0.4,0.586 -0.4,0.812 h 0.271 z m -4.132,4.253 h 0.214 l 0.168,-0.115 c 0.121,0 0.271,0.129 0.271,0.296 0,0.258 -0.199,0.419 -0.412,0.419 -0.155,0 -0.231,-0.013 -0.336,-0.064 v 0.264 c 0.104,0.039 0.219,0.053 0.388,0.053 0.303,0 0.807,-0.143 0.807,-0.639 0,-0.367 -0.232,-0.573 -0.541,-0.573 l -0.188,0.039 0.099,-0.355 0.135,0.007 c 0.535,0 0.684,-0.07 0.914,-0.154 v -0.284 c -0.152,0.052 -0.418,0.091 -0.619,0.091 -0.586,0 -1.023,-0.522 -1.023,-1.477 0,-0.618 0.099,-1.096 0.535,-1.096 0.398,0 0.465,0.399 0.465,0.664 h 0.761 c 0,-0.521 -0.472,-0.883 -1.187,-0.883 -0.922,0 -1.283,0.644 -1.283,1.527 0,0.818 0.381,1.398 1.037,1.56 l -0.205,0.72 z m -3.725,-1.797 c 0,0.438 -0.228,0.78 -0.6,0.78 -0.238,0 -0.388,-0.207 -0.388,-0.503 0,-0.612 0.754,-0.646 0.986,-0.651 l 0.002,0.374 0,0 z m 0,1.057 h 0.646 v -1.961 c 0,-0.638 -0.142,-1.107 -1.058,-1.107 -0.93,0 -1.141,0.451 -1.211,0.876 h 0.767 c 0,-0.283 0.024,-0.657 0.45,-0.657 0.406,0 0.406,0.451 0.406,0.857 v 0.329 c -0.412,0.013 -1.695,0.084 -1.695,0.991 0,0.382 0.361,0.742 0.863,0.742 0.498,0 0.717,-0.315 0.832,-0.452 v 0.382 z m -3.584,-0.368 c -0.154,0.052 -0.42,0.091 -0.619,0.091 -0.586,0 -1.022,-0.522 -1.022,-1.477 0,-0.618 0.096,-1.096 0.534,-1.096 0.398,0 0.466,0.399 0.466,0.664 h 0.76 c 0,-0.521 -0.471,-0.883 -1.188,-0.883 -0.92,0 -1.28,0.644 -1.28,1.527 0,0.974 0.534,1.611 1.438,1.611 0.535,0 0.684,-0.07 0.916,-0.154 v -0.284 l -0.005,0.001 0,0 z m -5.279,0.368 h 0.646 v -3.068 l -1.142,0.206 v 0.129 c 0.388,0.013 0.496,0.122 0.496,0.573 v 0.71 c 0,0.534 -0.282,1.082 -0.703,1.082 -0.311,0 -0.526,-0.174 -0.526,-0.761 v -1.939 l -1.144,0.206 v 0.129 c 0.396,0.013 0.498,0.122 0.498,0.573 v 0.916 c 0,0.477 0,1.314 0.861,1.314 0.627,0 0.891,-0.516 1,-0.8 h 0.014 v 0.73 l 0,0 z m -5.143,-1.426 c 0,0.343 -0.06,1.148 -0.678,1.148 -0.605,0 -0.658,-0.755 -0.658,-1.251 0,-0.451 0.059,-1.192 0.649,-1.192 0.613,0 0.687,0.67 0.687,1.031 v 0.264 z m 0,1.426 h 0.645 v -4.513 l -1.129,0.161 v 0.129 c 0.381,0.02 0.484,0.129 0.484,0.586 v 1.051 h -0.015 c -0.122,-0.213 -0.321,-0.482 -0.852,-0.482 -0.852,0 -1.18,0.812 -1.18,1.63 0,0.806 0.313,1.509 1.152,1.509 0.465,0 0.729,-0.277 0.891,-0.432 v 0.361 h 0.004 z m -5.898,-2.096 c 0,-0.245 0.136,-0.754 0.619,-0.754 0.562,0 0.572,0.606 0.572,0.754 h -1.191 z m 1.779,1.708 c -0.109,0.045 -0.336,0.11 -0.604,0.11 -0.908,0 -1.175,-0.916 -1.175,-1.561 h 1.839 c 0,-0.432 -0.091,-1.23 -1.191,-1.23 -0.863,0 -1.354,0.444 -1.354,1.463 0,1.076 0.593,1.676 1.578,1.676 0.445,0 0.787,-0.129 0.91,-0.174 v -0.284 h -0.003 z"
             id="path5497"
             inkscape:connector-curvature="0"
             style="fill:#286fb7" />
        </g>
      </g>
      <g
         id="g5499">
        <g
           id="g5501">
          <defs
             id="defs5503">
            <rect
               id="SVGID_7_"
               x="21"
               y="21"
               width="946.771"
               height="680.31403" />
          </defs>
          <clipPath
             id="clipPath9945">
            <use
               xlink:href="#SVGID_7_"
               overflow="visible"
               id="use9947"
               style="overflow:visible"
               x="0"
               y="0"
               width="988.771"
               height="722.31403" />
          </clipPath>
          <rect
             x="882.83899"
             y="73.001999"
             clip-path="url(#SVGID_8_)"
             width="34.681"
             height="33.790001"
             id="rect5509"
             style="fill:#286fb7" />
        </g>
      </g>
      <g
         id="g5511">
        <g
           id="g5513">
          <defs
             id="defs5515">
            <rect
               id="SVGID_9_"
               x="21"
               y="21"
               width="946.771"
               height="680.31403" />
          </defs>
          <clipPath
             id="clipPath9954">
            <use
               xlink:href="#SVGID_9_"
               overflow="visible"
               id="use9956"
               style="overflow:visible"
               x="0"
               y="0"
               width="988.771"
               height="722.31403" />
          </clipPath>
          <polygon
             clip-path="url(#SVGID_10_)"
             points="882.839,73.003 882.839,73.22 882.839,73.003 882.622,73.003 882.622,107.01 917.736,107.01 917.736,72.786 882.622,72.786 882.622,73.003 882.839,73.003 882.839,73.22 917.302,73.22 917.302,106.576 883.056,106.576 883.056,73.003 "
             id="polygon5521"
             style="fill:#286fb7" />
        </g>
      </g>
      <g
         id="g5523">
        <g
           id="g5525">
          <defs
             id="defs5527">
            <rect
               id="SVGID_11_"
               x="21"
               y="21"
               width="946.771"
               height="680.31403" />
          </defs>
          <clipPath
             id="clipPath9963">
            <use
               xlink:href="#SVGID_11_"
               overflow="visible"
               id="use9965"
               style="overflow:visible"
               x="0"
               y="0"
               width="988.771"
               height="722.31403" />
          </clipPath>
          <rect
             x="908.14899"
             y="77.112"
             clip-path="url(#SVGID_12_)"
             width="5.1230001"
             height="5.1220002"
             id="rect5533"
             style="fill:#ffffff" />
        </g>
      </g>
      <g
         id="g5535">
        <g
           id="g5537">
          <defs
             id="defs5539">
            <rect
               id="SVGID_13_"
               x="21"
               y="21"
               width="946.771"
               height="680.31403" />
          </defs>
          <clipPath
             id="clipPath9972">
            <use
               xlink:href="#SVGID_13_"
               overflow="visible"
               id="use9974"
               style="overflow:visible"
               x="0"
               y="0"
               width="988.771"
               height="722.31403" />
          </clipPath>
          <rect
             x="908.14899"
             y="87.331001"
             clip-path="url(#SVGID_14_)"
             width="5.1230001"
             height="5.1220002"
             id="rect5545"
             style="fill:#ffffff" />
        </g>
      </g>
      <g
         id="g5547">
        <g
           id="g5549">
          <defs
             id="defs5551">
            <rect
               id="SVGID_15_"
               x="21"
               y="21"
               width="946.771"
               height="680.31403" />
          </defs>
          <clipPath
             id="clipPath9981">
            <use
               xlink:href="#SVGID_15_"
               overflow="visible"
               id="use9983"
               style="overflow:visible"
               x="0"
               y="0"
               width="988.771"
               height="722.31403" />
          </clipPath>
          <rect
             x="908.14899"
             y="97.541"
             clip-path="url(#SVGID_16_)"
             width="5.1230001"
             height="5.1220002"
             id="rect5557"
             style="fill:#ffffff" />
        </g>
      </g>
      <g
         id="g5559">
        <g
           id="g5561">
          <defs
             id="defs5563">
            <rect
               id="SVGID_17_"
               x="21"
               y="21"
               width="946.771"
               height="680.31403" />
          </defs>
          <clipPath
             id="clipPath9990">
            <use
               xlink:href="#SVGID_17_"
               overflow="visible"
               id="use9992"
               style="overflow:visible"
               x="0"
               y="0"
               width="988.771"
               height="722.31403" />
          </clipPath>
          <polygon
             clip-path="url(#SVGID_18_)"
             points="891.495,91.487 901.599,91.487 901.599,102.653 906.755,102.653 906.755,77.115 901.599,77.115 901.599,87.167 891.495,87.167 891.495,77.115 886.339,77.115 886.339,102.653 891.495,102.653 "
             id="polygon5569"
             style="fill:#ffffff" />
        </g>
      </g>
    </g>
    <g
       id="g5857"
       transform="translate(-0.9773401,-1.3944791)">
      <g
         id="g5859">
        <defs
           id="defs5861">
          <rect
             id="SVGID_19_"
             x="877.745"
             y="145.619"
             width="48.636002"
             height="59.117001" />
        </defs>
        <clipPath
           id="clipPath10011">
          <use
             xlink:href="#SVGID_19_"
             overflow="visible"
             id="use10013"
             style="overflow:visible"
             x="0"
             y="0"
             width="988.771"
             height="722.31403" />
        </clipPath>
        <g
           transform="translate(-5.769306e-5,-7.153812e-8)"
           clip-path="url(#SVGID_20_)"
           id="g5867" />
      </g>
    </g>
  </g>
  <flowRoot
     xml:space="preserve"
     id="Titulo1aCapa"

     style="font-size:24px;fill:#ffffff;font-family:Tahoma;-inkscape-font-specification:Tahoma;font-weight:normal;font-style:normal;font-stretch:normal;font-variant:normal;text-anchor:start;text-align:start;writing-mode:lr;line-height:125%;"
     transform="translate(139.03343,-47.385174)"><flowRegion
       id="CaixaTitulo1aCapa"><rect
         id="RetanguloTitulo1aCapa"
         width="230"
         height="160"
         x="452.43921"
         y="110.011871"
         style="font-size:24px;font-style:normal;font-variant:normal;font-weight:normal;font-stretch:normal;text-align:start;line-height:125%;writing-mode:lr;text-anchor:start;fill:#f9f9f9;fill-opacity:0.07058824000000000;font-family:Tahoma;-inkscape-font-specification:Tahoma" /></flowRegion><flowPara
       id="TextoTitulo1aCapa">$TextoTitulo1aCapa$</flowPara></flowRoot>
  <text
     xml:space="preserve"
     style="font-size:14px;font-style:normal;font-variant:normal;font-weight:normal;font-stretch:normal;text-align:start;line-height:125%;letter-spacing:0px;word-spacing:0px;writing-mode:lr-tb;text-anchor:start;fill:#f9f9f9;fill-opacity:1;stroke:none;font-family:Tahoma;-inkscape-font-specification:Tahoma"
     x="565.95453"
     y="608.86115"
     id="Organizador"
     sodipodi:linespacing="125%"><tspan
       sodipodi:role="line"
       id="tspan4432"
       x="565.95453"
       y="608.86115">$Organizador$</tspan></text>
  <text
     xml:space="preserve"
     style="font-size:14px;font-style:normal;font-variant:normal;font-weight:normal;font-stretch:normal;text-align:start;line-height:125%;letter-spacing:0px;word-spacing:0px;writing-mode:lr-tb;text-anchor:start;fill:#ffffff;fill-opacity:1;stroke:none;font-family:Tahoma;-inkscape-font-specification:Tahoma"
     x="568.07813"
     y="634.34503"
     id="Autor"
     sodipodi:linespacing="125%"><tspan
       sodipodi:role="line"
       id="tspan4436"
       x="568.07813"
       y="634.34503">$Autores$</tspan></text>
  <text
     y="-491.96915"
     x="348.89224"
     id="Lombada"
     transform="matrix(0,1,-1,0,0,0)"
     style="-inkscape-font-specification:Trebuchet MS;font-family:Trebuchet MS;font-weight:normal;font-style:normal;font-stretch:normal;font-variant:normal;font-size:12px;text-anchor:start;text-align:start;writing-mode:lr;line-height:125%"
     sodipodi:linespacing="125%">
    <tspan
       style="font-size:12px;font-family:Trebuchet MS;fill:#ffffff;-inkscape-font-specification:Trebuchet MS;font-weight:normal;font-style:normal;font-stretch:normal;font-variant:normal;text-anchor:start;text-align:start;writing-mode:lr;line-height:125%"
       id="tspan5993"
       font-size="8"
       y="-491.96915"
       x="348.89224">$Lombada$</tspan>
  </text>
  <flowRoot
     xml:space="preserve"
     id="Titulo5aCapa"
     style="font-size:17px;fill:#3482a9;font-family:Trebuchet MS;-inkscape-font-specification:Trebuchet MS;font-weight:normal;font-style:normal;font-stretch:normal;font-variant:normal;text-anchor:start;text-align:start;writing-mode:lr;line-height:125%"
     transform="translate(139.03343,-47.385174)"><flowRegion
       id="CaixaTitulo5aCapa"><rect
         id="RetanguloTitulo5aCapa"
         width="180"
         height="65.833359"
         x="-41.411304"
         y="276.50891"
         style="font-size:17px;font-style:normal;font-variant:normal;font-weight:normal;font-stretch:normal;text-align:start;line-height:125%;writing-mode:lr;text-anchor:start;fill:#008000;fill-opacity:0.07058824000000000;font-family:Trebuchet MS;-inkscape-font-specification:Trebuchet MS" /></flowRegion><flowPara
       id="TextoTitulo5aCapa">$TextoTitulo5aCapa$</flowPara></flowRoot>  <flowRoot
     transform="translate(139.03343,24.499264)"
     style="font-size:12px;font-style:normal;font-variant:normal;font-weight:normal;font-stretch:normal;text-align:start;line-height:125%;writing-mode:lr-tb;text-anchor:start;fill:#000000;font-family:Tahoma;-inkscape-font-specification:Tahoma"
     id="Texto5aCapa"
     xml:space="preserve"><flowRegion
       id="FlowRegion5aCapa"><rect
         style="font-size:12px;font-style:normal;font-variant:normal;font-weight:normal;font-stretch:normal;text-align:start;line-height:125%;writing-mode:lr-tb;text-anchor:start;fill:#000000;fill-opacity:0.07058824;font-family:Tahoma;-inkscape-font-specification:Tahoma"
         y="276.50891"
         x="-41.411304"
         height="229.24475"
         width="166.52286"
         id="BoxTexto5aCapa" /></flowRegion><flowPara
       id="ConteudoTexto5aCapa">$Texto5aCapa$</flowPara></flowRoot></svg>
