<?xml version="1.0" standalone="no"?>
<!-- Generator: Adobe Fireworks 10, Export SVG Extension by Aaron Beall (http://fireworks.abeall.com) . Version: 0.6.1  -->
<!DOCTYPE svg PUBLIC "-//W3C//DTD SVG 1.1//EN" "http://www.w3.org/Graphics/SVG/1.1/DTD/svg11.dtd">
<svg id="oz-corte.fw-ICONS_publish" viewBox="0 0 50 400" style="background-color:#ffffff00" version="1.1"
	xmlns="http://www.w3.org/2000/svg" xmlns:xlink="http://www.w3.org/1999/xlink" xml:space="preserve"
	x="0px" y="0px" width="50px" height="400px"
>
	<g>
		<rect x="2" y="30" width="21" height="3" fill="#1459a2"/>
		<rect x="2" y="35" width="21" height="3" fill="#1459a2"/>
		<rect x="2" y="40" width="21" height="3" fill="#1459a2"/>
		<rect x="2" y="45" width="21" height="3" fill="#1459a2"/>
	</g>
	<g>
		<rect x="27" y="30" width="21" height="3" fill="#4b4b4b"/>
		<rect x="27" y="35" width="21" height="3" fill="#4b4b4b"/>
		<rect x="27" y="40" width="21" height="3" fill="#4b4b4b"/>
		<rect x="27" y="45" width="21" height="3" fill="#4b4b4b"/>
	</g>
	<g>
		<path d="M 3 50.0015 L 3 75 L 22 75 L 21.9999 54.53 L 17.4551 50 L 3 50.0015 Z" fill="#1358a2"/>
		<path opacity="0.8" d="M 17.1797 49.4621 L 17.1138 54.5707 L 22.2883 54.5707 L 17.1797 49.4621 Z" fill="#000000"/>
	</g>
	<g>
		<path d="M 28 50.0015 L 28 75 L 47 75 L 46.9999 54.53 L 42.4551 50 L 28 50.0015 Z" fill="#4b4b4b"/>
		<path opacity="0.8" d="M 42.1797 49.4621 L 42.1138 54.5707 L 47.2883 54.5707 L 42.1797 49.4621 Z" fill="#000000"/>
	</g>
	<g>
		<rect x="2" y="10.2298" width="20" height="2" fill="#20202f"/>
		<rect x="2" y="13.2298" width="20" height="2" fill="#20202f"/>
		<path d="M 17 18 L 12 23 L 7 18 L 17 18 Z" fill="#20202f"/>
		<path d="M 17 7 L 12 2 L 7 7 L 17 7 Z" fill="#20202f"/>
	</g>
	<g>
		<path d="M 6 103 L 17 103 L 17 121 L 6 121 L 6 103 Z" fill="#1459a2"/>
		<path opacity="0.4" d="M 2 106 L 5 106 L 5 118 L 2 118 L 2 106 Z" fill="#1459a2"/>
		<path opacity="0.4" d="M 18 106 L 21 106 L 21 118 L 18 118 L 18 106 Z" fill="#1459a2"/>
	</g>
	<g>
		<path d="M 31 103 L 42 103 L 42 121 L 31 121 L 31 103 Z" fill="#4b4b4b"/>
		<path opacity="0.4" d="M 27 106 L 30 106 L 30 118 L 27 118 L 27 106 Z" fill="#4b4b4b"/>
		<path opacity="0.4" d="M 43 106 L 46 106 L 46 118 L 43 118 L 43 106 Z" fill="#4b4b4b"/>
	</g>
	<g>
		<path d="M 10.1055 87.3691 C 10.1055 87.3691 11.6686 85.1944 15 82.37 C 18.3314 79.5457 24.3241 76.38 24.3241 76.38 C 24.3241 76.38 20.6441 82.1883 17.5234 85.9716 C 14.9821 89.0526 12.7943 90.3716 12.7943 90.3716 C 12.7943 90.3716 12.1398 91.885 10.0542 90 C 8.3989 88.5039 10.1055 87.3691 10.1055 87.3691 Z" fill="#1358a2"/>
		<path d="M 6.1349 91.031 C 6.1349 91.031 8.2247 89.9606 9.4398 91.4602 C 10.6549 92.9598 9.4637 95.2146 7.2612 97.3893 C 4.8505 99.7694 0.0793 97.3653 0.0793 97.3653 C 0.0793 97.3653 1.896 97.8931 2.7078 95.7019 C 3.8096 92.7281 6.1349 91.031 6.1349 91.031 Z" fill="#041220"/>
	</g>
	<g>
		<path d="M 35.1055 87.3691 C 35.1055 87.3691 36.6686 85.1944 40 82.37 C 43.3314 79.5457 49.3241 76.38 49.3241 76.38 C 49.3241 76.38 45.6441 82.1883 42.5234 85.9716 C 39.9821 89.0526 37.7943 90.3716 37.7943 90.3716 C 37.7943 90.3716 37.1398 91.885 35.0542 90 C 33.3989 88.5039 35.1055 87.3691 35.1055 87.3691 Z" fill="#4b4b4b"/>
		<path d="M 31.1349 91.031 C 31.1349 91.031 33.2247 89.9606 34.4398 91.4602 C 35.6549 92.9598 34.4637 95.2146 32.2612 97.3893 C 29.8505 99.7694 25.0793 97.3653 25.0793 97.3653 C 25.0793 97.3653 26.896 97.8931 27.7078 95.7019 C 28.8096 92.7281 31.1349 91.031 31.1349 91.031 Z" fill="#0f0f0f"/>
	</g>
	<path d="M 44 20 L 30 20 L 30 16 L 28 16 L 28 20 L 28 22 L 30 22 L 44 22 L 46 22 L 46 20 L 46 16 L 44 16 L 44 20 ZM 36.9999 3 L 31 10 L 36 8.24 L 36 16 L 38 16 L 38 8.415 L 43 10 L 36.9999 3 Z" fill="#1358a2"/>
	<g>
		<path d="M 3 154 L 6 154 L 6 171 L 3 171 L 3 154 Z" fill="#1459a2"/>
		<path d="M 17 154 L 18 154 L 18 171 L 17 171 L 17 154 Z" fill="#1459a2"/>
		<path d="M 13 154 L 16 154 L 16 171 L 13 171 L 13 154 Z" fill="#1459a2"/>
		<path d="M 11 154 L 12 154 L 12 171 L 11 171 L 11 154 Z" fill="#1459a2"/>
		<path d="M 7 154 L 10 154 L 10 171 L 7 171 L 7 154 Z" fill="#1459a2"/>
		<path d="M 19 154 L 22 154 L 22 171 L 19 171 L 19 154 Z" fill="#1459a2"/>
	</g>
	<g>
		<path d="M 28 154 L 31 154 L 31 171 L 28 171 L 28 154 Z" fill="#4b4b4b"/>
		<path d="M 42 154 L 43 154 L 43 171 L 42 171 L 42 154 Z" fill="#4b4b4b"/>
		<path d="M 38 154 L 41 154 L 41 171 L 38 171 L 38 154 Z" fill="#4b4b4b"/>
		<path d="M 36 154 L 37 154 L 37 171 L 36 171 L 36 154 Z" fill="#4b4b4b"/>
		<path d="M 32 154 L 35 154 L 35 171 L 32 171 L 32 154 Z" fill="#4b4b4b"/>
		<path d="M 44 154 L 47 154 L 47 171 L 44 171 L 44 154 Z" fill="#4b4b4b"/>
	</g>
	<g>
		<rect x="2.5" y="127.9724" width="21" height="3" fill="#13589f"/>
		<rect x="2.5" y="132.9724" width="17" height="3" fill="#13589f"/>
		<rect x="2.5" y="137.9724" width="21" height="3" fill="#13589f"/>
		<rect x="2.5" y="142.9724" width="17" height="3" fill="#13589f"/>
	</g>
	<g>
		<rect x="27.5" y="127.9724" width="21" height="3" fill="#4b4b4b"/>
		<rect x="27.5" y="132.9724" width="17" height="3" fill="#4b4b4b"/>
		<rect x="27.5" y="137.9724" width="21" height="3" fill="#4b4b4b"/>
		<rect x="27.5" y="142.9724" width="17" height="3" fill="#4b4b4b"/>
	</g>
	<g>
		<path d="M 2 184 L 7 184 L 7 185 L 2 185 L 2 184 Z" fill="#13589f"/>
		<path d="M 9 184 L 20 184 L 20 195 L 9 195 L 9 184 Z" fill="#13589f"/>
		<path d="M 10 177 L 10 182 L 9 182 L 9 177 L 10 177 Z" fill="#13589f"/>
	</g>
	<g>
		<path d="M 27 184 L 32 184 L 32 185 L 27 185 L 27 184 Z" fill="#4b4b4b"/>
		<path d="M 34 184 L 45 184 L 45 195 L 34 195 L 34 184 Z" fill="#4b4b4b"/>
		<path d="M 35 177 L 35 182 L 34 182 L 34 177 L 35 177 Z" fill="#4b4b4b"/>
	</g>
	<g>
		<g>
			<g>
				<path d="M 14.3906 217 L 11.625 204.0938 L 10.3594 204.0938 L 3 217 L 4.5156 217 L 6.8125 212.9063 L 11.9688 212.9063 L 12.8438 217 L 14.3906 217 L 14.3906 217 ZM 7.5781 211.5625 L 9.7969 207.5938 C 10.1563 206.9219 10.4531 206.2969 10.6719 205.7344 C 10.75 206.4688 10.8438 207.0938 10.9375 207.5938 L 11.7344 211.5625 L 7.5781 211.5625 L 7.5781 211.5625 Z" fill="#041220"/>
				<path d="M 22.5469 217 L 23.7031 210.4219 C 23.8906 209.2969 23.7656 208.4844 23.3125 207.9688 C 22.8438 207.4688 22.0469 207.2031 20.9063 207.2031 C 20.3281 207.2031 19.75 207.2813 19.1563 207.4219 C 18.5625 207.5781 18.0156 207.7813 17.4844 208.0313 L 17.75 209.1563 C 18.8438 208.6563 19.7813 208.4063 20.5938 208.4063 C 21.3125 208.4063 21.7969 208.5938 22.0625 208.9531 C 22.3125 209.3281 22.375 209.875 22.25 210.625 L 22.1406 211.2188 L 20.5156 211.2813 C 17.375 211.375 15.6406 212.4063 15.2969 214.3438 C 15.1406 215.25 15.2813 215.9531 15.7344 216.4375 C 16.1875 216.9375 16.8906 217.1719 17.8594 217.1719 C 18.5625 217.1719 19.1719 217.0625 19.6875 216.8594 C 20.2031 216.6406 20.7656 216.2344 21.3594 215.625 L 21.4375 215.625 L 21.4688 217 L 22.5469 217 L 22.5469 217 ZM 17.0938 215.5625 C 16.8125 215.2813 16.7344 214.8906 16.8281 214.3594 C 16.9375 213.6875 17.2813 213.1875 17.8438 212.875 C 18.4063 212.5625 19.2813 212.375 20.4688 212.3281 L 21.9219 212.2656 L 21.7813 213.125 C 21.6094 214.0313 21.2188 214.7344 20.625 215.2344 C 20.0156 215.7344 19.2656 215.9688 18.3594 215.9688 C 17.7813 215.9688 17.3594 215.8438 17.0938 215.5625 L 17.0938 215.5625 Z" fill="#041220"/>
			</g>
		</g>
		<path d="M 4 220 L 13 220 L 13 221 L 4 221 L 4 220 Z" fill="#13589f"/>
		<path d="M 1 207 L 1 217 L 0 217 L 0 207 L 1 207 Z" fill="#13589f"/>
	</g>
	<g>
		<g>
			<g>
				<path d="M 39.3906 217 L 36.625 204.0938 L 35.3594 204.0938 L 28 217 L 29.5156 217 L 31.8125 212.9063 L 36.9688 212.9063 L 37.8438 217 L 39.3906 217 L 39.3906 217 ZM 32.5781 211.5625 L 34.7969 207.5938 C 35.1563 206.9219 35.4531 206.2969 35.6719 205.7344 C 35.75 206.4688 35.8438 207.0938 35.9375 207.5938 L 36.7344 211.5625 L 32.5781 211.5625 L 32.5781 211.5625 Z" fill="#041220"/>
				<path d="M 47.5469 217 L 48.7031 210.4219 C 48.8906 209.2969 48.7656 208.4844 48.3125 207.9688 C 47.8438 207.4688 47.0469 207.2031 45.9063 207.2031 C 45.3281 207.2031 44.75 207.2813 44.1563 207.4219 C 43.5625 207.5781 43.0156 207.7813 42.4844 208.0313 L 42.75 209.1563 C 43.8438 208.6563 44.7813 208.4063 45.5938 208.4063 C 46.3125 208.4063 46.7969 208.5938 47.0625 208.9531 C 47.3125 209.3281 47.375 209.875 47.25 210.625 L 47.1406 211.2188 L 45.5156 211.2813 C 42.375 211.375 40.6406 212.4063 40.2969 214.3438 C 40.1406 215.25 40.2813 215.9531 40.7344 216.4375 C 41.1875 216.9375 41.8906 217.1719 42.8594 217.1719 C 43.5625 217.1719 44.1719 217.0625 44.6875 216.8594 C 45.2031 216.6406 45.7656 216.2344 46.3594 215.625 L 46.4375 215.625 L 46.4688 217 L 47.5469 217 L 47.5469 217 ZM 42.0938 215.5625 C 41.8125 215.2813 41.7344 214.8906 41.8281 214.3594 C 41.9375 213.6875 42.2813 213.1875 42.8438 212.875 C 43.4063 212.5625 44.2813 212.375 45.4688 212.3281 L 46.9219 212.2656 L 46.7813 213.125 C 46.6094 214.0313 46.2188 214.7344 45.625 215.2344 C 45.0156 215.7344 44.2656 215.9688 43.3594 215.9688 C 42.7813 215.9688 42.3594 215.8438 42.0938 215.5625 L 42.0938 215.5625 Z" fill="#041220"/>
			</g>
		</g>
		<path d="M 29 220 L 38 220 L 38 221 L 29 221 L 29 220 Z" fill="#4b4b4b"/>
		<path d="M 26 207 L 26 217 L 25 217 L 25 207 L 26 207 Z" fill="#4b4b4b"/>
	</g>
	<g>
		<path d="M 6 244.8125 C 6.9219 245.2188 7.7656 245.5 8.5313 245.6719 C 9.2813 245.8594 10.1094 245.9688 11 246 L 11 248 L 12 248 L 12 246 C 13.5625 245.875 14.7969 245.3594 15.6719 244.4531 C 16.5469 243.5469 17 242.5 17 241.3125 C 17 240.25 16.6875 239.3594 16.0938 238.6406 C 15.4844 237.9219 14.125 236.8125 12 235.2969 L 12 228.9844 C 13 229.1094 13.75 229.4688 14.25 230.0781 C 14.75 230.7031 15 231.6719 15 233 L 16 233 L 16 229.25 C 14.6875 228.6719 13.9063 228.3438 13.6719 228.2656 C 13.2188 228.1406 12.6563 228.0625 12 228 L 12 227 L 11 227 L 11 228 C 9.3906 228.1563 8.1563 228.625 7.2969 229.3906 C 6.4219 230.1719 6 231.0625 6 232.0938 C 6 233 6.25 233.7813 6.75 234.4063 C 7.4531 235.3125 8.875 236.3438 11 237.5 L 11 245 C 9.7188 244.875 8.75 244.4844 8.1094 243.8281 C 7.4531 243.1719 7.0938 242.2344 7 241 L 6 241 L 6 244.8125 L 6 244.8125 ZM 8.6719 233.1094 C 8.2188 232.5781 8 232.0156 8 231.4063 C 8 230.7656 8.2344 230.2344 8.7344 229.7969 C 9.2344 229.375 9.9844 229.1094 11 229 L 11 234.7813 C 9.8906 234.1875 9.1094 233.6406 8.6719 233.1094 L 8.6719 233.1094 ZM 12 238.0313 C 13.3281 238.9688 14.1563 239.6875 14.5 240.1875 C 14.8281 240.6875 15 241.2344 15 241.7969 C 15 242.3438 14.8594 242.8594 14.5781 243.3438 C 14.2969 243.8438 13.9375 244.2344 13.4688 244.5156 C 13.125 244.7344 12.625 244.8906 12 245 L 12 238.0313 L 12 238.0313 Z" fill="#1459a2"/>
	</g>
	<g>
		<path d="M 2 252 L 2 272 L 10 272 L 10 264 L 15 264 L 15 272 L 23 272 L 23 252 L 2 252 Z" fill="#1459a2"/>
	</g>
	<g>
		<path d="M 19 279 C 19 279 22.2469 282.8354 22 283 C 21.7531 283.1646 23.3536 287.7652 23 288 C 22.6464 288.2348 22 292 22 292 C 22 292 20.939 290.8842 21 291 C 21.061 291.1158 19.4299 288.5701 19 289 L 20 288 L 22 286 C 22 286 20.6372 285.3506 21 285 C 21.3628 284.6494 17.8201 284.3445 18 284 C 18.1799 283.6555 17 282 17 282 L 19 279 ZM 6 279 L 12 279 L 13 281 L 12 283 C 12 283 9.7954 284.3089 10 284 C 10.2046 283.6911 7.7083 283.6062 8 284 C 8.2917 284.3938 5.5822 284.9816 6 285 C 6.4178 285.0184 6.9966 285.5762 7 286 C 7.0034 286.4238 11 286 11 286 C 11 286 12.9847 285.6543 13 286 C 13.0153 286.3457 14.3601 288.4051 14 288 C 13.6399 287.5949 14 290 14 290 C 14 290 11.9997 291.4082 12 292 C 12.0003 292.5918 8.6934 295.105 9 295 C 9.3066 294.895 9.2789 295.5045 9 296 C 8.7211 296.4955 7.0356 294.9489 7 295 C 6.9644 295.0511 6.6453 291.7596 7 292 C 7.3547 292.2404 6.519 289.1168 6 289 C 5.5171 288.8913 5.1937 287.0777 5.035 286.99 C 5.2318 286.8121 6 286 6 286 L 5 285 L 4 282 C 4 282 4.5971 278.8372 5 279 C 5.4029 279.1628 6 279 6 279 ZM 0 287 C 0 293.6275 5.3724 299 12 299 C 18.6275 299 24 293.6275 24 287 C 24 280.3725 18.6275 275 12 275 C 5.3724 275 0 280.3725 0 287 Z" fill="#1459a2"/>
	</g>
	<path d="M 3 301 L 3 323 L 4.0441 322.9715 L 6.5 320 L 8.5 323 L 10.5 323 L 12.5 320 L 14.5 323 L 16.5 323 L 18.5 320 L 21.5 323 L 22 323 L 22 301 L 3 301 Z" fill="#13589f"/>
	<path d="M 28 301 L 28 323 L 29.0441 322.9715 L 31.5 320 L 33.5 323 L 35.5 323 L 37.5 320 L 39.5 323 L 41.5 323 L 43.5 320 L 46.5 323 L 47 323 L 47 301 L 28 301 Z" fill="#4b4b4b"/>
	<path d="M 31 244.8125 C 31.9219 245.2188 32.7656 245.5 33.5313 245.6719 C 34.2813 245.8594 35.1094 245.9688 36 246 L 36 248 L 37 248 L 37 246 C 38.5625 245.875 39.7969 245.3594 40.6719 244.4531 C 41.5469 243.5469 42 242.5 42 241.3125 C 42 240.25 41.6875 239.3594 41.0938 238.6406 C 40.4844 237.9219 39.125 236.8125 37 235.2969 L 37 228.9844 C 38 229.1094 38.75 229.4688 39.25 230.0781 C 39.75 230.7031 40 231.6719 40 233 L 41 233 L 41 229.25 C 39.6875 228.6719 38.9063 228.3438 38.6719 228.2656 C 38.2188 228.1406 37.6563 228.0625 37 228 L 37 227 L 36 227 L 36 228 C 34.3906 228.1563 33.1563 228.625 32.2969 229.3906 C 31.4219 230.1719 31 231.0625 31 232.0938 C 31 233 31.25 233.7813 31.75 234.4063 C 32.4531 235.3125 33.875 236.3438 36 237.5 L 36 245 C 34.7188 244.875 33.75 244.4844 33.1094 243.8281 C 32.4531 243.1719 32.0938 242.2344 32 241 L 31 241 L 31 244.8125 L 31 244.8125 ZM 33.6719 233.1094 C 33.2188 232.5781 33 232.0156 33 231.4063 C 33 230.7656 33.2344 230.2344 33.7344 229.7969 C 34.2344 229.375 34.9844 229.1094 36 229 L 36 234.7813 C 34.8906 234.1875 34.1094 233.6406 33.6719 233.1094 L 33.6719 233.1094 ZM 37 238.0313 C 38.3281 238.9688 39.1563 239.6875 39.5 240.1875 C 39.8281 240.6875 40 241.2344 40 241.7969 C 40 242.3438 39.8594 242.8594 39.5781 243.3438 C 39.2969 243.8438 38.9375 244.2344 38.4688 244.5156 C 38.125 244.7344 37.625 244.8906 37 245 L 37 238.0313 L 37 238.0313 Z" fill="#4b4b4b"/>
	<path d="M 27 252 L 27 272 L 35 272 L 35 264 L 40 264 L 40 272 L 48 272 L 48 252 L 27 252 Z" fill="#4b4b4b"/>
	<path d="M 44 279 C 44 279 47.2469 282.8354 47 283 C 46.7531 283.1646 48.3536 287.7652 48 288 C 47.6464 288.2348 47 292 47 292 C 47 292 45.939 290.8842 46 291 C 46.061 291.1158 44.4299 288.5701 44 289 L 45 288 L 47 286 C 47 286 45.6372 285.3506 46 285 C 46.3628 284.6494 42.8201 284.3445 43 284 C 43.1799 283.6555 42 282 42 282 L 44 279 ZM 31 279 L 37 279 L 38 281 L 37 283 C 37 283 34.7954 284.3089 35 284 C 35.2046 283.6911 32.7083 283.6062 33 284 C 33.2917 284.3938 30.5822 284.9816 31 285 C 31.4178 285.0184 31.9966 285.5762 32 286 C 32.0034 286.4238 36 286 36 286 C 36 286 37.9847 285.6543 38 286 C 38.0153 286.3457 39.3601 288.4051 39 288 C 38.6399 287.5949 39 290 39 290 C 39 290 36.9997 291.4082 37 292 C 37.0003 292.5918 33.6934 295.105 34 295 C 34.3066 294.895 34.2789 295.5045 34 296 C 33.7211 296.4955 32.0356 294.9489 32 295 C 31.9644 295.0511 31.6453 291.7596 32 292 C 32.3547 292.2404 31.519 289.1168 31 289 C 30.5171 288.8913 30.1937 287.0777 30.035 286.99 C 30.2318 286.8121 31 286 31 286 L 30 285 L 29 282 C 29 282 29.5971 278.8372 30 279 C 30.4029 279.1628 31 279 31 279 ZM 25 287 C 25 293.6275 30.3724 299 37 299 C 43.6275 299 49 293.6275 49 287 C 49 280.3725 43.6275 275 37 275 C 30.3724 275 25 280.3725 25 287 Z" fill="#4b4b4b"/>
	<path d="M 19.9366 328 L 8.1077 340.1592 L 3.4203 335.5425 L 1 338.6802 L 8.4307 346 L 23 331.0063 L 19.9366 328 Z" fill="#ffffff"/>
	<path d="M 43.9366 328 L 32.1077 340.1592 L 27.4203 335.5425 L 25 338.6802 L 32.4307 346 L 47 331.0063 L 43.9366 328 Z" fill="#4b4b4b"/>
	<path d="M 19.4308 352 L 12.605 359.025 L 8.9703 355.4932 L 5.819 352.1561 L 2.1561 355.8694 L 4.2614 357.9232 L 5.4794 359.1066 L 9.11 362.625 L 5.6493 366.1858 L 2.3123 369.3372 L 6.0255 373 L 8.0793 370.8948 L 9.2627 369.6768 L 12.71 366.12 L 19.6488 372.8439 L 23.1561 369.2747 L 16.2 362.52 L 23 355.5073 L 19.4308 352 Z" fill="#4b4b4b"/>
	<path d="M 44.4308 352 L 37.605 359.025 L 33.9703 355.4932 L 30.819 352.1561 L 27.1561 355.8694 L 29.2614 357.9232 L 30.4794 359.1066 L 34.11 362.625 L 30.6493 366.1858 L 27.3123 369.3372 L 31.0255 373 L 33.0793 370.8948 L 34.2627 369.6768 L 37.71 366.12 L 44.6488 372.8439 L 48.1561 369.2747 L 41.2 362.52 L 48 355.5073 L 44.4308 352 Z" fill="#ff4d4d"/>
</svg>