<?xml version="1.0" standalone="no"?>
<!-- Generator: Adobe Fireworks 10, Export SVG Extension by Aaron Beall (http://fireworks.abeall.com) . Version: 0.6.1  -->
<!DOCTYPE svg PUBLIC "-//W3C//DTD SVG 1.1//EN" "http://www.w3.org/Graphics/SVG/1.1/DTD/svg11.dtd">
<svg id="oz-corte.fw-ICO_social" viewBox="0 0 165 55" style="background-color:#ffffff00" version="1.1"
	xmlns="http://www.w3.org/2000/svg" xmlns:xlink="http://www.w3.org/1999/xlink" xml:space="preserve"
	x="0px" y="0px" width="165px" height="55px"
>
	<g>
		<g>
			<path id="Ellipse" d="M 0 27 C 0 12.0881 12.0881 0 27 0 C 41.9119 0 54 12.0881 54 27 C 54 41.9119 41.9119 54 27 54 C 12.0881 54 0 41.9119 0 27 Z" fill="#3b5998"/>
		</g>
		<g>
			<path id="Ellipse2" d="M 110 27 C 110 12.0881 122.0881 0 137 0 C 151.9119 0 164 12.0881 164 27 C 164 41.9119 151.9119 54 137 54 C 122.0881 54 110 41.9119 110 27 Z" fill="#dd4b39"/>
			<path d="M 148.5991 22.0026 L 146.9365 22 L 146.4016 22.0622 L 146.3988 26.0016 L 142 26.0016 L 142 28.001 L 146.3988 28.001 L 146.3988 32 L 148.5991 32 L 148.5991 28.001 L 153 28.001 L 153 26.0016 L 148.5991 26.0016 L 148.5991 22.0026 ZM 139.9883 21.1287 C 139.9883 19.2847 139.234 17.6089 137.8126 16.7964 L 139.8263 16.7964 L 141.5399 15 L 133.871 15 C 129.9801 15 126.7357 17.866 126.7357 21.0208 C 126.7357 24.2454 128.8669 26.813 132.5275 26.813 C 132.7816 26.813 133.0294 26.8003 133.2706 26.7813 C 133.0326 27.2383 132.8641 27.7461 132.8641 28.2761 C 132.8641 29.1711 133.3564 29.6821 133.9663 30.2756 L 132.5751 30.2883 C 128.119 30.2883 125 33.3511 125 36.2932 C 125 39.1877 128.7606 41 133.2167 41 C 138.2954 41 141.4192 38.1182 141.4192 35.2236 C 141.4192 32.9004 140.9172 31.7324 138.4415 29.8789 C 137.73 29.3457 136.1832 28.2507 136.1832 27.5176 C 136.1832 26.6606 136.4277 26.2354 137.7236 25.2261 C 139.0497 24.1882 139.9883 22.8235 139.9883 21.1287 ZM 132.7164 16.2441 C 134.7826 16.3076 136.5516 18.5325 136.9073 21.2461 C 137.2632 23.9565 136.0753 25.7021 134.0092 25.6418 C 131.9415 25.5784 129.9769 23.6836 129.6213 20.9731 C 129.2625 18.2595 130.6504 16.1838 132.7164 16.2441 ZM 133.5851 31.1929 C 134.3029 31.1992 134.9731 31.3167 135.5797 31.5134 C 137.2537 32.675 138.6002 33.3987 138.9402 34.7253 C 139.0037 34.9919 139.0386 35.2681 139.0386 35.5505 C 139.0386 37.8896 137.5299 39.7178 133.1992 39.7178 C 130.1199 39.7178 127.895 37.7722 127.895 35.4299 C 127.895 33.1384 130.5043 31.158 133.5851 31.1929 Z" fill="#ffffff"/>
		</g>
		<g>
			<path id="Ellipse3" d="M 55 27 C 55 12.0881 67.0881 0 82 0 C 96.9119 0 109 12.0881 109 27 C 109 41.9119 96.9119 54 82 54 C 67.0881 54 55 41.9119 55 27 Z" fill="#5eaade"/>
			<path d="M 95.134 22.4794 C 96.2568 21.6961 97.231 20.7179 98 19.6042 C 96.9712 20.0471 95.8638 20.3445 94.7017 20.4767 C 95.8877 19.7926 96.7969 18.702 97.2275 17.4065 C 96.1167 18.041 94.8862 18.5037 93.5789 18.7515 C 92.5313 17.6742 91.0376 17 89.3867 17 C 86.2131 17 83.6411 19.4852 83.6411 22.5521 C 83.6411 22.9883 83.6924 23.4113 83.7898 23.8177 C 79.0166 23.5865 74.7817 21.3755 71.95 18.0146 C 71.4561 18.8375 71.1724 19.7892 71.1724 20.8071 C 71.1724 22.7338 73.2142 24.1581 74.7557 25.1529 C 73.8141 25.1264 71.9004 25.153 71.1245 24.7365 L 71.1245 24.8059 C 71.1245 27.496 74.4067 29.7513 77.0317 30.2603 C 76.5515 30.3892 74.7441 30.4472 74.2195 30.4472 C 73.8486 30.4472 73.4897 30.4141 73.1394 30.3481 C 73.8691 32.5557 77.2915 34.1698 79.8037 34.2128 C 77.8384 35.7032 74.064 36.5809 71.3706 36.5809 C 70.9075 36.5809 70.4512 36.5578 70 36.5049 C 72.543 38.0812 75.561 39 78.8064 39 C 89.373 39 95.1511 30.5364 95.1511 23.1965 L 95.134 22.4794 Z" fill="#ffffff"/>
		</g>
		<path d="M 29.0871 40 L 29.0871 28.1402 L 33.2149 28.1402 L 33.8328 23.5182 L 29.0871 23.5182 L 29.0871 20.5672 C 29.0871 19.229 29.4724 18.3171 31.4622 18.3171 L 34 18.316 L 34 14.1821 C 33.5609 14.1258 32.0546 14 30.302 14 C 26.6432 14 24.1382 16.1539 24.1382 20.1096 L 24.1382 23.5182 L 20 23.5182 L 20 28.1402 L 24.1382 28.1402 L 24.1382 40 L 29.0871 40 Z" fill="#ffffff"/>
	</g>
</svg>