<?xml version="1.0" standalone="no"?>
<!-- Generator: Adobe Fireworks 10, Export SVG Extension by Aaron Beall (http://fireworks.abeall.com) . Version: 0.6.1  -->
<!DOCTYPE svg PUBLIC "-//W3C//DTD SVG 1.1//EN" "http://www.w3.org/Graphics/SVG/1.1/DTD/svg11.dtd">
<svg id="oz-corte.fw-ICONS_cover-editor" viewBox="0 0 115 713" style="background-color:#ffffff00" version="1.1"
	xmlns="http://www.w3.org/2000/svg" xmlns:xlink="http://www.w3.org/1999/xlink" xml:space="preserve"
	x="0px" y="0px" width="115px" height="713px"
>
	<defs>
		<radialGradient id="gradient1" cx="183.7208%" cy="59.2533%" r="186.3566%">
			<stop stop-color="#000000" stop-opacity="0" offset="0%"/>
			<stop stop-color="#000000" stop-opacity="0" offset="19.5238%"/>
			<stop stop-color="#000000" stop-opacity="0.8" offset="100%"/>
		</radialGradient>
		<radialGradient id="gradient2" cx="-83.7207%" cy="42.6624%" r="186.3569%">
			<stop stop-color="#000000" stop-opacity="0" offset="0%"/>
			<stop stop-color="#000000" stop-opacity="0" offset="19.5238%"/>
			<stop stop-color="#000000" stop-opacity="0.8" offset="100%"/>
		</radialGradient>
		<radialGradient id="gradient3" cx="41.8607%" cy="187.24%" r="186.6747%">
			<stop stop-color="#000000" stop-opacity="0" offset="0%"/>
			<stop stop-color="#000000" stop-opacity="0" offset="19.5238%"/>
			<stop stop-color="#000000" stop-opacity="0.8" offset="100%"/>
		</radialGradient>
		<radialGradient id="gradient4" cx="58.1396%" cy="-85.3244%" r="186.6742%">
			<stop stop-color="#000000" stop-opacity="0" offset="0%"/>
			<stop stop-color="#000000" stop-opacity="0" offset="19.5238%"/>
			<stop stop-color="#000000" stop-opacity="0.8" offset="100%"/>
		</radialGradient>
	</defs>
	<g>
		<g>
			<rect x="2" y="3.5" width="22" height="2.7388" fill="#000000"/>
			<rect x="2" y="11.6301" width="22" height="2.7391" fill="#000000"/>
			<rect x="2" y="19.7605" width="22" height="2.7395" fill="#000000"/>
			<rect x="2" y="15.9615" width="15" height="2.5385" fill="#000000"/>
			<rect x="2" y="7.5" width="15" height="2.5385" fill="#000000"/>
		</g>
		<g>
			<rect x="2" y="29.5" width="22" height="2.7388" fill="#000000"/>
			<rect x="2" y="37.6301" width="22" height="2.7391" fill="#000000"/>
			<rect x="2" y="45.7605" width="22" height="2.7395" fill="#000000"/>
			<rect x="6" y="41.9615" width="15" height="2.5385" fill="#000000"/>
			<rect x="6" y="33.5" width="15" height="2.5385" fill="#000000"/>
		</g>
		<g>
			<rect x="2" y="55.5" width="22" height="2.7388" fill="#000000"/>
			<rect x="2" y="63.6301" width="22" height="2.7391" fill="#000000"/>
			<rect x="2" y="71.7605" width="22" height="2.7395" fill="#000000"/>
			<rect x="9" y="67.9615" width="15" height="2.5385" fill="#000000"/>
			<rect x="9" y="59.5" width="15" height="2.5385" fill="#000000"/>
		</g>
		<g>
			<g>
				<rect x="32" y="3.5" width="1" height="19" fill="#000000"/>
				<path d="M 32.5 3 L 37 8 L 28 8 L 32.5 3 Z" fill="#000000"/>
				<path d="M 32.5 22 L 37 17 L 28 17 L 32.5 22 Z" fill="#000000"/>
			</g>
			<g>
				<rect x="43" y="3.5" width="17" height="2" fill="#000000"/>
				<rect x="43" y="11.5" width="17" height="2" fill="#000000"/>
				<rect x="43" y="19.5" width="17" height="2" fill="#000000"/>
				<rect x="43" y="15.5" width="17" height="2" fill="#000000"/>
				<rect x="43" y="7.5" width="17" height="2" fill="#000000"/>
			</g>
		</g>
		<g>
			<g>
				<rect x="43" y="29.5" width="17" height="2" fill="#000000"/>
				<rect x="43" y="37.5" width="17" height="2" fill="#000000"/>
				<rect x="43" y="45.5" width="17" height="2" fill="#000000"/>
			</g>
			<g>
				<rect x="32" y="29.5" width="1" height="19" fill="#000000"/>
				<path d="M 32.5 29 L 37 34 L 28 34 L 32.5 29 Z" fill="#000000"/>
				<path d="M 32.5 48 L 37 43 L 28 43 L 32.5 48 Z" fill="#000000"/>
			</g>
		</g>
	</g>
	<path opacity="0.502" d="M 112 53 L 113 53 L 115 51 L 115 50 L 112 53 ZM 108 53 L 109 53 L 115 47 L 115 46 L 108 53 ZM 104 53 L 105 53 L 115 43 L 115 42 L 104 53 ZM 100 53 L 101 53 L 115 39 L 115 38 L 100 53 ZM 96 53 L 97 53 L 115 35 L 115 34 L 96 53 ZM 92 53 L 93 53 L 115 31 L 115 30 L 92 53 ZM 88 53 L 89 53 L 115 27 L 115 26 L 88 53 ZM 84 53 L 85 53 L 115 23 L 115 22 L 84 53 ZM 80 53 L 81 53 L 115 19 L 115 18 L 80 53 ZM 76 53 L 77 53 L 115 15 L 115 14 L 76 53 ZM 72 53 L 73 53 L 115 11 L 115 10 L 72 53 ZM 68 53 L 69 53 L 115 7 L 115 6 L 68 53 ZM 64 53 L 65 53 L 115 3 L 115 2 L 64 53 ZM 62 51 L 62 52 L 114 0 L 113 0 L 62 51 ZM 62 47 L 62 48 L 110 0 L 109 0 L 62 47 ZM 62 43 L 62 44 L 106 0 L 105 0 L 62 43 ZM 62 39 L 62 40 L 102 0 L 101 0 L 62 39 ZM 62 35 L 62 36 L 98 0 L 97 0 L 62 35 ZM 62 31 L 62 32 L 94 0 L 93 0 L 62 31 ZM 62 27 L 62 28 L 90 0 L 89 0 L 62 27 ZM 62 23 L 62 24 L 86 0 L 85 0 L 62 23 ZM 62 19 L 62 20 L 82 0 L 81 0 L 62 19 ZM 62 15 L 62 16 L 78 0 L 77 0 L 62 15 ZM 62 11 L 62 12 L 74 0 L 73 0 L 62 11 ZM 62 7 L 62 8 L 70 0 L 69 0 L 62 7 ZM 62 3 L 62 4 L 66 0 L 65 0 L 62 3 Z" fill="#000000"/>
	<path opacity="0.502" d="M 108 106 L 109 106 L 115 100 L 115 99 L 108 106 ZM 96 106 L 97 106 L 115 88 L 115 87 L 96 106 ZM 84 106 L 85 106 L 115 76 L 115 75 L 84 106 ZM 72 106 L 73 106 L 115 64 L 115 63 L 72 106 ZM 62 104 L 62 105 L 114 53 L 113 53 L 62 104 ZM 62 92 L 62 93 L 102 53 L 101 53 L 62 92 ZM 62 80 L 62 81 L 90 53 L 89 53 L 62 80 ZM 62 68 L 62 69 L 78 53 L 77 53 L 62 68 ZM 62 56 L 62 57 L 66 53 L 65 53 L 62 56 Z" fill="#000000"/>
	<path opacity="0.502" d="M 112.715 159 L 115 159 L 115 156.715 L 112.715 159 ZM 102.15 159 L 106.375 159 L 115 150.375 L 115 146.15 L 102.15 159 ZM 91.585 159 L 95.81 159 L 115 139.81 L 115 135.585 L 91.585 159 ZM 81.02 159 L 85.245 159 L 115 129.245 L 115 125.02 L 81.02 159 ZM 70.455 159 L 74.68 159 L 115 118.68 L 115 114.455 L 70.455 159 ZM 62 156.885 L 62 159 L 64.115 159 L 115 108.115 L 115 106 L 112.885 106 L 62 156.885 ZM 62 146.32 L 62 150.545 L 106.545 106 L 102.32 106 L 62 146.32 ZM 62 135.755 L 62 139.98 L 95.98 106 L 91.755 106 L 62 135.755 ZM 62 125.19 L 62 129.415 L 85.415 106 L 81.19 106 L 62 125.19 ZM 62 114.625 L 62 118.85 L 74.85 106 L 70.625 106 L 62 114.625 ZM 62 106 L 62 108.285 L 64.285 106 L 62 106 Z" fill="#000000"/>
	<path opacity="0.502" d="M 102 212 L 115 212 L 115 199 L 102 212 ZM 62 199 L 62 212 L 75 212 L 115 172 L 115 159 L 102 159 L 62 199 ZM 62 159 L 62 172 L 75 159 L 62 159 Z" fill="#000000"/>
	<path opacity="0.502" d="M 95.1765 304.7554 C 95.1765 308.8558 98.4949 312.1799 102.5883 312.1799 C 106.6816 312.1799 110 308.8558 110 304.7554 C 110 300.655 106.6816 297.3309 102.5883 297.3309 C 98.4949 297.3309 95.1765 300.655 95.1765 304.7554 ZM 68.7059 279.2446 C 68.7059 283.345 72.0242 286.6691 76.1177 286.6691 C 80.2111 286.6691 83.5294 283.345 83.5294 279.2446 C 83.5294 275.1442 80.2111 271.8201 76.1177 271.8201 C 72.0242 271.8201 68.7059 275.1442 68.7059 279.2446 Z" fill="#000000"/>
	<path opacity="0.502" d="M 101.75 344.5 L 88.5 357.75 L 101.75 371 L 115 357.75 L 101.75 344.5 ZM 75.25 371 L 88.5 357.75 L 75.25 344.5 L 62 357.75 L 75.25 371 ZM 88.5 331.25 L 101.75 344.5 L 115 331.25 L 101.75 318 L 88.5 331.25 ZM 62 331.25 L 75.25 344.5 L 88.5 331.25 L 75.25 318 L 62 331.25 Z" fill="#000000"/>
	<path opacity="0.502" d="M 88.4895 371 L 62.4894 397 L 88.4895 423 L 114.4897 397 L 88.4895 371 Z" fill="#000000"/>
	<path d="M 115.1177 424.3956 L 115.1177 476.6043 L 62 476.6043 L 62 424.3956 L 115.1177 424.3956 Z" fill="url(#gradient1)"/>
	<path d="M 62.2939 477.3957 L 115.4116 477.3957 L 115.4116 529.6043 L 62.2939 529.6043 L 62.2939 477.3957 Z" fill="url(#gradient2)"/>
	<path d="M 61.5881 530.3957 L 114.7057 530.3957 L 114.7057 582.6043 L 61.5881 582.6043 L 61.5881 530.3957 Z" fill="url(#gradient3)"/>
	<path d="M 61.8822 583.3957 L 115 583.3957 L 115 635.6043 L 61.8822 635.6043 L 61.8822 583.3957 Z" fill="url(#gradient4)"/>
	<path opacity="0.502" d="M 78.8889 257.8889 C 78.8889 259.6685 80.3315 261.1111 82.1111 261.1111 C 83.8907 261.1111 85.3333 259.6685 85.3333 257.8889 C 85.3333 256.1093 83.8907 254.6667 82.1111 254.6667 C 80.3315 254.6667 78.8889 256.1093 78.8889 257.8889 ZM 104.6667 257.8889 C 104.6667 259.6685 106.1093 261.1111 107.8889 261.1111 C 109.6685 261.1111 111.1111 259.6685 111.1111 257.8889 C 111.1111 256.1093 109.6685 254.6667 107.8889 254.6667 C 106.1093 254.6667 104.6667 256.1093 104.6667 257.8889 ZM 91.7778 245 C 91.7778 246.7796 93.2204 248.2222 95 248.2222 C 96.7796 248.2222 98.2222 246.7796 98.2222 245 C 98.2222 243.2204 96.7796 241.7778 95 241.7778 C 93.2204 241.7778 91.7778 243.2204 91.7778 245 ZM 66 245 C 66 246.7796 67.4426 248.2222 69.2222 248.2222 C 71.0018 248.2222 72.4445 246.7796 72.4445 245 C 72.4445 243.2204 71.0018 241.7778 69.2222 241.7778 C 67.4426 241.7778 66 243.2204 66 245 ZM 78.8889 232.1111 C 78.8889 233.8907 80.3315 235.3333 82.1111 235.3333 C 83.8907 235.3333 85.3333 233.8907 85.3333 232.1111 C 85.3333 230.3315 83.8907 228.8889 82.1111 228.8889 C 80.3315 228.8889 78.8889 230.3315 78.8889 232.1111 ZM 104.6667 232.1111 C 104.6667 233.8907 106.1093 235.3333 107.8889 235.3333 C 109.6685 235.3333 111.1111 233.8907 111.1111 232.1111 C 111.1111 230.3315 109.6685 228.8889 107.8889 228.8889 C 106.1093 228.8889 104.6667 230.3315 104.6667 232.1111 ZM 91.7778 219.2222 C 91.7778 221.0018 93.2204 222.4444 95 222.4444 C 96.7796 222.4444 98.2222 221.0018 98.2222 219.2222 C 98.2222 217.4426 96.7796 216 95 216 C 93.2204 216 91.7778 217.4426 91.7778 219.2222 ZM 66 219.2222 C 66 221.0018 67.4426 222.4444 69.2222 222.4444 C 71.0018 222.4444 72.4445 221.0018 72.4445 219.2222 C 72.4445 217.4426 71.0018 216 69.2222 216 C 67.4426 216 66 217.4426 66 219.2222 Z" fill="#000000"/>
</svg>